<svg xmlns="http://www.w3.org/2000/svg" xmlns:xlink="http://www.w3.org/1999/xlink" width="500" zoomAndPan="magnify" viewBox="0 0 375 89.999999" height="120" preserveAspectRatio="xMidYMid meet" version="1.0"><defs><g/><clipPath id="93ce4be80c"><rect x="0" width="353" y="0" height="76"/></clipPath><clipPath id="2b1ce9f2e6"><path d="M 352.792969 67.777344 L 361.792969 67.777344 L 361.792969 76.777344 L 352.792969 76.777344 Z M 352.792969 67.777344 " clip-rule="nonzero"/></clipPath><clipPath id="ded64cc4d0"><path d="M 357.292969 67.777344 C 354.808594 67.777344 352.792969 69.792969 352.792969 72.277344 C 352.792969 74.765625 354.808594 76.777344 357.292969 76.777344 C 359.78125 76.777344 361.792969 74.765625 361.792969 72.277344 C 361.792969 69.792969 359.78125 67.777344 357.292969 67.777344 Z M 357.292969 67.777344 " clip-rule="nonzero"/></clipPath><clipPath id="3e4ff77b92"><path d="M 0.792969 0.777344 L 9.792969 0.777344 L 9.792969 9.777344 L 0.792969 9.777344 Z M 0.792969 0.777344 " clip-rule="nonzero"/></clipPath><clipPath id="30a1e92ed2"><path d="M 5.292969 0.777344 C 2.808594 0.777344 0.792969 2.792969 0.792969 5.277344 C 0.792969 7.765625 2.808594 9.777344 5.292969 9.777344 C 7.78125 9.777344 9.792969 7.765625 9.792969 5.277344 C 9.792969 2.792969 7.78125 0.777344 5.292969 0.777344 Z M 5.292969 0.777344 " clip-rule="nonzero"/></clipPath><clipPath id="bd39f103a9"><rect x="0" width="10" y="0" height="10"/></clipPath><clipPath id="ecbd469920"><path d="M 0.078125 24 L 1 24 L 1 25 L 0.078125 25 Z M 0.078125 24 " clip-rule="nonzero"/></clipPath><clipPath id="ae33463199"><rect x="0" width="6" y="0" height="32"/></clipPath></defs><g transform="matrix(1, 0, 0, 1, 9, 6)"><g clip-path="url(#93ce4be80c)"><g fill="#001639" fill-opacity="1"><g transform="translate(1.028622, 60.256214)"><g><path d="M 18.796875 0.53125 C 15.566406 0.53125 12.539062 0.0976562 9.71875 -0.765625 C 6.90625 -1.628906 4.515625 -2.867188 2.546875 -4.484375 L 5.140625 -10.046875 C 9.117188 -7.054688 13.6875 -5.5625 18.84375 -5.5625 C 21.757812 -5.5625 24.015625 -6.070312 25.609375 -7.09375 C 27.210938 -8.113281 28.015625 -9.550781 28.015625 -11.40625 C 28.015625 -12.976562 27.285156 -14.195312 25.828125 -15.0625 C 25.078125 -15.5 24.085938 -15.90625 22.859375 -16.28125 C 21.640625 -16.65625 20.1875 -17.039062 18.5 -17.4375 C 14.988281 -18.21875 12.109375 -19.117188 9.859375 -20.140625 C 7.617188 -21.171875 5.976562 -22.460938 4.9375 -24.015625 C 3.894531 -25.578125 3.375 -27.5 3.375 -29.78125 C 3.375 -32.257812 4.039062 -34.46875 5.375 -36.40625 C 6.71875 -38.332031 8.617188 -39.847656 11.078125 -40.953125 C 13.535156 -42.054688 16.382812 -42.609375 19.625 -42.609375 C 22.570312 -42.609375 25.375 -42.164062 28.03125 -41.28125 C 30.695312 -40.394531 32.875 -39.160156 34.5625 -37.578125 L 32.03125 -32.03125 C 28.320312 -35.019531 24.1875 -36.515625 19.625 -36.515625 C 16.90625 -36.515625 14.753906 -35.953125 13.171875 -34.828125 C 11.597656 -33.710938 10.8125 -32.1875 10.8125 -30.25 C 10.8125 -28.632812 11.519531 -27.375 12.9375 -26.46875 C 13.613281 -26.039062 14.550781 -25.628906 15.75 -25.234375 C 16.945312 -24.835938 18.394531 -24.441406 20.09375 -24.046875 C 23.675781 -23.179688 26.53125 -22.296875 28.65625 -21.390625 C 30.863281 -20.410156 32.554688 -19.160156 33.734375 -17.640625 C 34.921875 -16.117188 35.515625 -14.21875 35.515625 -11.9375 C 35.515625 -9.375 34.84375 -7.1875 33.5 -5.375 C 32.164062 -3.488281 30.238281 -2.03125 27.71875 -1 C 25.195312 0.0195312 22.222656 0.53125 18.796875 0.53125 Z M 18.796875 0.53125 "/></g></g></g><g fill="#001639" fill-opacity="1"><g transform="translate(36.179789, 60.256214)"><g><path d="M 31.203125 -29.84375 L 31.203125 0 L 23.984375 0 L 23.984375 -4.609375 C 22.054688 -1.222656 18.984375 0.46875 14.765625 0.46875 C 7.484375 0.46875 3.84375 -3.625 3.84375 -11.8125 L 3.84375 -29.84375 L 11.171875 -29.84375 L 11.171875 -11.765625 C 11.171875 -7.546875 12.984375 -5.4375 16.609375 -5.4375 C 18.773438 -5.4375 20.503906 -6.144531 21.796875 -7.5625 C 23.097656 -8.976562 23.75 -10.867188 23.75 -13.234375 L 23.75 -29.84375 Z M 31.203125 -29.84375 "/></g></g></g><g fill="#001639" fill-opacity="1"><g transform="translate(68.495157, 60.256214)"><g><path d="M 21.03125 -30.609375 C 23.59375 -30.609375 25.878906 -29.957031 27.890625 -28.65625 C 29.859375 -27.320312 31.40625 -25.460938 32.53125 -23.078125 C 33.65625 -20.691406 34.21875 -17.960938 34.21875 -14.890625 C 34.21875 -11.742188 33.664062 -9.046875 32.5625 -6.796875 C 31.457031 -4.472656 29.910156 -2.679688 27.921875 -1.421875 C 25.929688 -0.160156 23.632812 0.46875 21.03125 0.46875 C 18.863281 0.46875 16.929688 0.0078125 15.234375 -0.90625 C 13.546875 -1.832031 12.25 -3.125 11.34375 -4.78125 L 11.34375 12.765625 L 4.015625 12.765625 L 4.015625 -21.390625 C 4.015625 -22.960938 3.972656 -24.457031 3.890625 -25.875 C 3.816406 -27.300781 3.703125 -28.625 3.546875 -29.84375 L 10.453125 -29.84375 L 11.046875 -24.703125 C 11.835938 -26.554688 13.117188 -28.003906 14.890625 -29.046875 C 16.660156 -30.085938 18.707031 -30.609375 21.03125 -30.609375 Z M 19.03125 -5.3125 C 21.507812 -5.3125 23.414062 -6.140625 24.75 -7.796875 C 26.09375 -9.453125 26.765625 -11.816406 26.765625 -14.890625 C 26.765625 -18.003906 26.09375 -20.4375 24.75 -22.1875 C 23.414062 -23.9375 21.53125 -24.8125 19.09375 -24.8125 C 16.570312 -24.8125 14.640625 -23.960938 13.296875 -22.265625 C 11.953125 -20.578125 11.28125 -18.160156 11.28125 -15.015625 C 11.28125 -11.898438 11.953125 -9.503906 13.296875 -7.828125 C 14.640625 -6.148438 16.550781 -5.3125 19.03125 -5.3125 Z M 19.03125 -5.3125 "/></g></g></g><g fill="#001639" fill-opacity="1"><g transform="translate(102.228425, 60.256214)"><g><path d="M 21.03125 -30.609375 C 23.59375 -30.609375 25.878906 -29.957031 27.890625 -28.65625 C 29.859375 -27.320312 31.40625 -25.460938 32.53125 -23.078125 C 33.65625 -20.691406 34.21875 -17.960938 34.21875 -14.890625 C 34.21875 -11.742188 33.664062 -9.046875 32.5625 -6.796875 C 31.457031 -4.472656 29.910156 -2.679688 27.921875 -1.421875 C 25.929688 -0.160156 23.632812 0.46875 21.03125 0.46875 C 18.863281 0.46875 16.929688 0.0078125 15.234375 -0.90625 C 13.546875 -1.832031 12.25 -3.125 11.34375 -4.78125 L 11.34375 12.765625 L 4.015625 12.765625 L 4.015625 -21.390625 C 4.015625 -22.960938 3.972656 -24.457031 3.890625 -25.875 C 3.816406 -27.300781 3.703125 -28.625 3.546875 -29.84375 L 10.453125 -29.84375 L 11.046875 -24.703125 C 11.835938 -26.554688 13.117188 -28.003906 14.890625 -29.046875 C 16.660156 -30.085938 18.707031 -30.609375 21.03125 -30.609375 Z M 19.03125 -5.3125 C 21.507812 -5.3125 23.414062 -6.140625 24.75 -7.796875 C 26.09375 -9.453125 26.765625 -11.816406 26.765625 -14.890625 C 26.765625 -18.003906 26.09375 -20.4375 24.75 -22.1875 C 23.414062 -23.9375 21.53125 -24.8125 19.09375 -24.8125 C 16.570312 -24.8125 14.640625 -23.960938 13.296875 -22.265625 C 11.953125 -20.578125 11.28125 -18.160156 11.28125 -15.015625 C 11.28125 -11.898438 11.953125 -9.503906 13.296875 -7.828125 C 14.640625 -6.148438 16.550781 -5.3125 19.03125 -5.3125 Z M 19.03125 -5.3125 "/></g></g></g><g fill="#001639" fill-opacity="1"><g transform="translate(135.961692, 60.256214)"><g><path d="M 17.546875 0.46875 C 14.554688 0.46875 11.898438 -0.160156 9.578125 -1.421875 C 7.285156 -2.679688 5.507812 -4.484375 4.25 -6.828125 C 2.988281 -9.171875 2.359375 -11.914062 2.359375 -15.0625 C 2.359375 -18.175781 2.988281 -20.9375 4.25 -23.34375 C 5.507812 -25.664062 7.28125 -27.457031 9.5625 -28.71875 C 11.851562 -29.976562 14.515625 -30.609375 17.546875 -30.609375 C 20.503906 -30.609375 23.144531 -29.976562 25.46875 -28.71875 C 27.75 -27.457031 29.507812 -25.65625 30.75 -23.3125 C 32 -20.96875 32.625 -18.21875 32.625 -15.0625 C 32.625 -11.875 32.007812 -9.140625 30.78125 -6.859375 C 29.5625 -4.492188 27.800781 -2.679688 25.5 -1.421875 C 23.195312 -0.160156 20.546875 0.46875 17.546875 0.46875 Z M 17.484375 -5.3125 C 20.015625 -5.3125 21.9375 -6.128906 23.25 -7.765625 C 24.570312 -9.398438 25.234375 -11.832031 25.234375 -15.0625 C 25.234375 -18.257812 24.5625 -20.691406 23.21875 -22.359375 C 21.882812 -24.035156 19.992188 -24.875 17.546875 -24.875 C 15.066406 -24.875 13.15625 -24.035156 11.8125 -22.359375 C 10.476562 -20.691406 9.8125 -18.257812 9.8125 -15.0625 C 9.8125 -11.832031 10.46875 -9.398438 11.78125 -7.765625 C 13.101562 -6.128906 15.003906 -5.3125 17.484375 -5.3125 Z M 17.484375 -5.3125 "/></g></g></g><g fill="#001639" fill-opacity="1"><g transform="translate(168.040743, 60.256214)"><g><path d="M 20.09375 -30.546875 C 21.195312 -30.546875 22.179688 -30.390625 23.046875 -30.078125 L 22.984375 -23.34375 C 21.804688 -23.851562 20.507812 -24.109375 19.09375 -24.109375 C 16.570312 -24.109375 14.648438 -23.378906 13.328125 -21.921875 C 12.003906 -20.460938 11.34375 -18.53125 11.34375 -16.125 L 11.34375 0 L 4.015625 0 L 4.015625 -21.390625 C 4.015625 -22.960938 3.972656 -24.457031 3.890625 -25.875 C 3.816406 -27.300781 3.703125 -28.625 3.546875 -29.84375 L 10.453125 -29.84375 L 11.046875 -24.578125 C 11.796875 -26.515625 12.976562 -27.992188 14.59375 -29.015625 C 16.207031 -30.035156 18.039062 -30.546875 20.09375 -30.546875 Z M 20.09375 -30.546875 "/></g></g></g><g fill="#001639" fill-opacity="1"><g transform="translate(188.303961, 60.256214)"><g><path d="M 13.421875 -24.28125 L 13.421875 -10.9375 C 13.421875 -7.425781 15.050781 -5.671875 18.3125 -5.671875 C 19.144531 -5.671875 20.132812 -5.828125 21.28125 -6.140625 L 21.28125 -0.296875 C 19.976562 0.171875 18.398438 0.40625 16.546875 0.40625 C 13.160156 0.40625 10.5625 -0.535156 8.75 -2.421875 C 6.9375 -4.316406 6.03125 -7.035156 6.03125 -10.578125 L 6.03125 -24.28125 L 0.296875 -24.28125 L 0.296875 -29.84375 L 6.03125 -29.84375 L 6.03125 -37.109375 L 13.421875 -39.59375 L 13.421875 -29.84375 L 21.328125 -29.84375 L 21.328125 -24.28125 Z M 13.421875 -24.28125 "/></g></g></g><g fill="#001639" fill-opacity="1"><g transform="translate(207.799149, 60.256214)"><g><path d="M 17.546875 0.46875 C 14.554688 0.46875 11.898438 -0.160156 9.578125 -1.421875 C 7.285156 -2.679688 5.507812 -4.484375 4.25 -6.828125 C 2.988281 -9.171875 2.359375 -11.914062 2.359375 -15.0625 C 2.359375 -18.175781 2.988281 -20.9375 4.25 -23.34375 C 5.507812 -25.664062 7.28125 -27.457031 9.5625 -28.71875 C 11.851562 -29.976562 14.515625 -30.609375 17.546875 -30.609375 C 20.503906 -30.609375 23.144531 -29.976562 25.46875 -28.71875 C 27.75 -27.457031 29.507812 -25.65625 30.75 -23.3125 C 32 -20.96875 32.625 -18.21875 32.625 -15.0625 C 32.625 -11.875 32.007812 -9.140625 30.78125 -6.859375 C 29.5625 -4.492188 27.800781 -2.679688 25.5 -1.421875 C 23.195312 -0.160156 20.546875 0.46875 17.546875 0.46875 Z M 17.484375 -5.3125 C 20.015625 -5.3125 21.9375 -6.128906 23.25 -7.765625 C 24.570312 -9.398438 25.234375 -11.832031 25.234375 -15.0625 C 25.234375 -18.257812 24.5625 -20.691406 23.21875 -22.359375 C 21.882812 -24.035156 19.992188 -24.875 17.546875 -24.875 C 15.066406 -24.875 13.15625 -24.035156 11.8125 -22.359375 C 10.476562 -20.691406 9.8125 -18.257812 9.8125 -15.0625 C 9.8125 -11.832031 10.46875 -9.398438 11.78125 -7.765625 C 13.101562 -6.128906 15.003906 -5.3125 17.484375 -5.3125 Z M 17.484375 -5.3125 "/></g></g></g><g fill="#001639" fill-opacity="1"><g transform="translate(239.8782, 60.256214)"><g><path d="M 4.015625 0 L 4.015625 -43.5 L 11.34375 -43.5 L 11.34375 0 Z M 4.015625 0 "/></g></g></g><g fill="#001639" fill-opacity="1"><g transform="translate(252.40206, 60.256214)"><g><path d="M 17.546875 0.46875 C 14.554688 0.46875 11.898438 -0.160156 9.578125 -1.421875 C 7.285156 -2.679688 5.507812 -4.484375 4.25 -6.828125 C 2.988281 -9.171875 2.359375 -11.914062 2.359375 -15.0625 C 2.359375 -18.175781 2.988281 -20.9375 4.25 -23.34375 C 5.507812 -25.664062 7.28125 -27.457031 9.5625 -28.71875 C 11.851562 -29.976562 14.515625 -30.609375 17.546875 -30.609375 C 20.503906 -30.609375 23.144531 -29.976562 25.46875 -28.71875 C 27.75 -27.457031 29.507812 -25.65625 30.75 -23.3125 C 32 -20.96875 32.625 -18.21875 32.625 -15.0625 C 32.625 -11.875 32.007812 -9.140625 30.78125 -6.859375 C 29.5625 -4.492188 27.800781 -2.679688 25.5 -1.421875 C 23.195312 -0.160156 20.546875 0.46875 17.546875 0.46875 Z M 17.484375 -5.3125 C 20.015625 -5.3125 21.9375 -6.128906 23.25 -7.765625 C 24.570312 -9.398438 25.234375 -11.832031 25.234375 -15.0625 C 25.234375 -18.257812 24.5625 -20.691406 23.21875 -22.359375 C 21.882812 -24.035156 19.992188 -24.875 17.546875 -24.875 C 15.066406 -24.875 13.15625 -24.035156 11.8125 -22.359375 C 10.476562 -20.691406 9.8125 -18.257812 9.8125 -15.0625 C 9.8125 -11.832031 10.46875 -9.398438 11.78125 -7.765625 C 13.101562 -6.128906 15.003906 -5.3125 17.484375 -5.3125 Z M 17.484375 -5.3125 "/></g></g></g><g fill="#001639" fill-opacity="1"><g transform="translate(284.481098, 60.256214)"><g><path d="M 32.859375 -29.84375 L 32.859375 -0.953125 C 32.859375 3.703125 31.578125 7.226562 29.015625 9.625 C 26.453125 12.03125 22.691406 13.234375 17.734375 13.234375 C 13.078125 13.234375 9.019531 12.269531 5.5625 10.34375 L 6.734375 4.734375 C 10.359375 6.617188 13.960938 7.5625 17.546875 7.5625 C 22.867188 7.5625 25.53125 4.921875 25.53125 -0.359375 L 25.53125 -6.265625 C 24.625 -4.648438 23.300781 -3.335938 21.5625 -2.328125 C 19.832031 -1.328125 17.882812 -0.828125 15.71875 -0.828125 C 13.15625 -0.828125 10.851562 -1.457031 8.8125 -2.71875 C 6.757812 -3.976562 5.171875 -5.726562 4.046875 -7.96875 C 2.921875 -10.21875 2.359375 -12.800781 2.359375 -15.71875 C 2.359375 -18.550781 2.929688 -21.148438 4.078125 -23.515625 C 5.222656 -25.765625 6.796875 -27.507812 8.796875 -28.75 C 10.804688 -29.988281 13.113281 -30.609375 15.71875 -30.609375 C 17.925781 -30.609375 19.882812 -30.144531 21.59375 -29.21875 C 23.3125 -28.289062 24.625 -27 25.53125 -25.34375 L 25.53125 -29.84375 Z M 17.671875 -6.625 C 20.109375 -6.625 22.023438 -7.429688 23.421875 -9.046875 C 24.828125 -10.660156 25.53125 -12.882812 25.53125 -15.71875 C 25.53125 -18.550781 24.835938 -20.773438 23.453125 -22.390625 C 22.078125 -24.003906 20.148438 -24.8125 17.671875 -24.8125 C 15.222656 -24.8125 13.300781 -24.003906 11.90625 -22.390625 C 10.507812 -20.773438 9.8125 -18.550781 9.8125 -15.71875 C 9.8125 -12.882812 10.507812 -10.660156 11.90625 -9.046875 C 13.300781 -7.429688 15.222656 -6.625 17.671875 -6.625 Z M 17.671875 -6.625 "/></g></g></g><g fill="#001639" fill-opacity="1"><g transform="translate(318.391589, 60.256214)"><g><path d="M 32.265625 -29.84375 L 18.375 2.015625 C 16.800781 5.710938 14.789062 8.40625 12.34375 10.09375 C 9.90625 11.789062 6.894531 12.914062 3.3125 13.46875 L 1.65625 7.796875 C 4.445312 7.171875 6.539062 6.375 7.9375 5.40625 C 9.34375 4.4375 10.476562 3.007812 11.34375 1.125 L 12.296875 -1.0625 L -0.125 -29.84375 L 7.625 -29.84375 L 16.1875 -8.390625 L 24.9375 -29.84375 Z M 32.265625 -29.84375 "/></g></g></g></g></g><g clip-path="url(#2b1ce9f2e6)"><g clip-path="url(#ded64cc4d0)"><g transform="matrix(1, 0, 0, 1, 352, 67)"><g clip-path="url(#bd39f103a9)"><g clip-path="url(#3e4ff77b92)"><g clip-path="url(#30a1e92ed2)"><path fill="#001639" d="M 0.792969 0.777344 L 9.792969 0.777344 L 9.792969 9.777344 L 0.792969 9.777344 Z M 0.792969 0.777344 " fill-opacity="1" fill-rule="nonzero"/></g></g></g></g></g></g><g transform="matrix(1, 0, 0, 1, 184, 4)"><g clip-path="url(#ae33463199)"><g clip-path="url(#ecbd469920)"><g fill="#001639" fill-opacity="1"><g transform="translate(0.164763, 24.806466)"><g/></g></g></g></g></g></svg>