<svg xmlns="http://www.w3.org/2000/svg" xmlns:xlink="http://www.w3.org/1999/xlink" width="500" zoomAndPan="magnify" viewBox="0 0 375 89.999999" height="120" preserveAspectRatio="xMidYMid meet" version="1.0"><defs><g/><clipPath id="881496d753"><rect x="0" width="309" y="0" height="67"/></clipPath><clipPath id="c067406761"><path d="M 334.460938 60.945312 L 340.929688 60.945312 L 340.929688 67.417969 L 334.460938 67.417969 Z M 334.460938 60.945312 " clip-rule="nonzero"/></clipPath><clipPath id="2ccf6c8292"><path d="M 337.695312 60.945312 C 335.910156 60.945312 334.460938 62.394531 334.460938 64.183594 C 334.460938 65.96875 335.910156 67.417969 337.695312 67.417969 C 339.480469 67.417969 340.929688 65.96875 340.929688 64.183594 C 340.929688 62.394531 339.480469 60.945312 337.695312 60.945312 Z M 337.695312 60.945312 " clip-rule="nonzero"/></clipPath><clipPath id="446ebb5789"><path d="M 0.460938 0.945312 L 6.929688 0.945312 L 6.929688 7.417969 L 0.460938 7.417969 Z M 0.460938 0.945312 " clip-rule="nonzero"/></clipPath><clipPath id="2ee5e51f97"><path d="M 3.695312 0.945312 C 1.910156 0.945312 0.460938 2.394531 0.460938 4.183594 C 0.460938 5.96875 1.910156 7.417969 3.695312 7.417969 C 5.480469 7.417969 6.929688 5.96875 6.929688 4.183594 C 6.929688 2.394531 5.480469 0.945312 3.695312 0.945312 Z M 3.695312 0.945312 " clip-rule="nonzero"/></clipPath><clipPath id="63807279c1"><rect x="0" width="7" y="0" height="8"/></clipPath><clipPath id="c473aabe7c"><path d="M 0.078125 24 L 1 24 L 1 25 L 0.078125 25 Z M 0.078125 24 " clip-rule="nonzero"/></clipPath><clipPath id="4ce71acd9e"><rect x="0" width="6" y="0" height="32"/></clipPath></defs><rect x="-37.5" width="450" fill="#ffffff" y="-9" height="107.999999" fill-opacity="1"/><rect x="-37.5" width="450" fill="#ffffff" y="-9" height="107.999999" fill-opacity="1"/><g transform="matrix(1, 0, 0, 1, 31, 10)"><g clip-path="url(#881496d753)"><g fill="#001639" fill-opacity="1"><g transform="translate(0.480235, 53.118975)"><g><path d="M 16.484375 0.46875 C 13.648438 0.46875 11 0.0859375 8.53125 -0.671875 C 6.0625 -1.429688 3.960938 -2.519531 2.234375 -3.9375 L 4.515625 -8.8125 C 8.003906 -6.1875 12.007812 -4.875 16.53125 -4.875 C 19.09375 -4.875 21.070312 -5.320312 22.46875 -6.21875 C 23.875 -7.113281 24.578125 -8.375 24.578125 -10 C 24.578125 -11.382812 23.9375 -12.457031 22.65625 -13.21875 C 22 -13.601562 21.132812 -13.957031 20.0625 -14.28125 C 18.988281 -14.613281 17.710938 -14.953125 16.234375 -15.296875 C 13.148438 -15.984375 10.625 -16.773438 8.65625 -17.671875 C 6.6875 -18.578125 5.242188 -19.710938 4.328125 -21.078125 C 3.410156 -22.441406 2.953125 -24.125 2.953125 -26.125 C 2.953125 -28.300781 3.539062 -30.238281 4.71875 -31.9375 C 5.894531 -33.625 7.5625 -34.953125 9.71875 -35.921875 C 11.875 -36.890625 14.375 -37.375 17.21875 -37.375 C 19.800781 -37.375 22.257812 -36.984375 24.59375 -36.203125 C 26.925781 -35.429688 28.835938 -34.351562 30.328125 -32.96875 L 28.09375 -28.09375 C 24.84375 -30.726562 21.21875 -32.046875 17.21875 -32.046875 C 14.832031 -32.046875 12.945312 -31.550781 11.5625 -30.5625 C 10.175781 -29.570312 9.484375 -28.234375 9.484375 -26.546875 C 9.484375 -25.128906 10.109375 -24.019531 11.359375 -23.21875 C 11.941406 -22.84375 12.757812 -22.484375 13.8125 -22.140625 C 14.863281 -21.796875 16.132812 -21.445312 17.625 -21.09375 C 20.769531 -20.332031 23.273438 -19.554688 25.140625 -18.765625 C 27.078125 -17.898438 28.5625 -16.800781 29.59375 -15.46875 C 30.632812 -14.144531 31.15625 -12.476562 31.15625 -10.46875 C 31.15625 -8.226562 30.566406 -6.3125 29.390625 -4.71875 C 28.210938 -3.0625 26.519531 -1.78125 24.3125 -0.875 C 22.101562 0.0195312 19.492188 0.46875 16.484375 0.46875 Z M 16.484375 0.46875 "/></g></g></g><g fill="#001639" fill-opacity="1"><g transform="translate(31.315949, 53.118975)"><g><path d="M 27.375 -26.1875 L 27.375 0 L 21.046875 0 L 21.046875 -4.046875 C 19.359375 -1.066406 16.660156 0.421875 12.953125 0.421875 C 6.566406 0.421875 3.375 -3.175781 3.375 -10.375 L 3.375 -26.1875 L 9.796875 -26.1875 L 9.796875 -10.3125 C 9.796875 -6.613281 11.382812 -4.765625 14.5625 -4.765625 C 16.46875 -4.765625 17.988281 -5.382812 19.125 -6.625 C 20.269531 -7.875 20.84375 -9.535156 20.84375 -11.609375 L 20.84375 -26.1875 Z M 27.375 -26.1875 "/></g></g></g><g fill="#001639" fill-opacity="1"><g transform="translate(59.664011, 53.118975)"><g><path d="M 18.453125 -26.859375 C 20.703125 -26.859375 22.707031 -26.285156 24.46875 -25.140625 C 26.195312 -23.960938 27.550781 -22.328125 28.53125 -20.234375 C 29.519531 -18.148438 30.015625 -15.757812 30.015625 -13.0625 C 30.015625 -10.300781 29.53125 -7.9375 28.5625 -5.96875 C 27.59375 -3.925781 26.234375 -2.347656 24.484375 -1.234375 C 22.742188 -0.128906 20.734375 0.421875 18.453125 0.421875 C 16.554688 0.421875 14.863281 0.0117188 13.375 -0.796875 C 11.882812 -1.609375 10.742188 -2.742188 9.953125 -4.203125 L 9.953125 11.203125 L 3.53125 11.203125 L 3.53125 -18.765625 C 3.53125 -20.148438 3.492188 -21.460938 3.421875 -22.703125 C 3.347656 -23.953125 3.242188 -25.113281 3.109375 -26.1875 L 9.171875 -26.1875 L 9.6875 -21.671875 C 10.382812 -23.296875 11.507812 -24.566406 13.0625 -25.484375 C 14.613281 -26.398438 16.410156 -26.859375 18.453125 -26.859375 Z M 16.6875 -4.671875 C 18.863281 -4.671875 20.539062 -5.394531 21.71875 -6.84375 C 22.894531 -8.289062 23.484375 -10.363281 23.484375 -13.0625 C 23.484375 -15.789062 22.894531 -17.925781 21.71875 -19.46875 C 20.539062 -21.007812 18.882812 -21.78125 16.75 -21.78125 C 14.53125 -21.78125 12.832031 -21.035156 11.65625 -19.546875 C 10.488281 -18.054688 9.90625 -15.929688 9.90625 -13.171875 C 9.90625 -10.441406 10.488281 -8.34375 11.65625 -6.875 C 12.832031 -5.40625 14.507812 -4.671875 16.6875 -4.671875 Z M 16.6875 -4.671875 "/></g></g></g><g fill="#001639" fill-opacity="1"><g transform="translate(89.255899, 53.118975)"><g><path d="M 18.453125 -26.859375 C 20.703125 -26.859375 22.707031 -26.285156 24.46875 -25.140625 C 26.195312 -23.960938 27.550781 -22.328125 28.53125 -20.234375 C 29.519531 -18.148438 30.015625 -15.757812 30.015625 -13.0625 C 30.015625 -10.300781 29.53125 -7.9375 28.5625 -5.96875 C 27.59375 -3.925781 26.234375 -2.347656 24.484375 -1.234375 C 22.742188 -0.128906 20.734375 0.421875 18.453125 0.421875 C 16.554688 0.421875 14.863281 0.0117188 13.375 -0.796875 C 11.882812 -1.609375 10.742188 -2.742188 9.953125 -4.203125 L 9.953125 11.203125 L 3.53125 11.203125 L 3.53125 -18.765625 C 3.53125 -20.148438 3.492188 -21.460938 3.421875 -22.703125 C 3.347656 -23.953125 3.242188 -25.113281 3.109375 -26.1875 L 9.171875 -26.1875 L 9.6875 -21.671875 C 10.382812 -23.296875 11.507812 -24.566406 13.0625 -25.484375 C 14.613281 -26.398438 16.410156 -26.859375 18.453125 -26.859375 Z M 16.6875 -4.671875 C 18.863281 -4.671875 20.539062 -5.394531 21.71875 -6.84375 C 22.894531 -8.289062 23.484375 -10.363281 23.484375 -13.0625 C 23.484375 -15.789062 22.894531 -17.925781 21.71875 -19.46875 C 20.539062 -21.007812 18.882812 -21.78125 16.75 -21.78125 C 14.53125 -21.78125 12.832031 -21.035156 11.65625 -19.546875 C 10.488281 -18.054688 9.90625 -15.929688 9.90625 -13.171875 C 9.90625 -10.441406 10.488281 -8.34375 11.65625 -6.875 C 12.832031 -5.40625 14.507812 -4.671875 16.6875 -4.671875 Z M 16.6875 -4.671875 "/></g></g></g><g fill="#001639" fill-opacity="1"><g transform="translate(118.847786, 53.118975)"><g><path d="M 15.390625 0.421875 C 12.765625 0.421875 10.4375 -0.132812 8.40625 -1.25 C 6.394531 -2.351562 4.835938 -3.929688 3.734375 -5.984375 C 2.628906 -8.046875 2.078125 -10.457031 2.078125 -13.21875 C 2.078125 -15.945312 2.628906 -18.367188 3.734375 -20.484375 C 4.835938 -22.515625 6.390625 -24.082031 8.390625 -25.1875 C 10.398438 -26.300781 12.734375 -26.859375 15.390625 -26.859375 C 17.984375 -26.859375 20.300781 -26.304688 22.34375 -25.203125 C 24.34375 -24.085938 25.890625 -22.503906 26.984375 -20.453125 C 28.078125 -18.398438 28.625 -15.988281 28.625 -13.21875 C 28.625 -10.414062 28.085938 -8.015625 27.015625 -6.015625 C 25.941406 -3.941406 24.394531 -2.347656 22.375 -1.234375 C 20.351562 -0.128906 18.023438 0.421875 15.390625 0.421875 Z M 15.34375 -4.671875 C 17.550781 -4.671875 19.234375 -5.382812 20.390625 -6.8125 C 21.554688 -8.25 22.140625 -10.382812 22.140625 -13.21875 C 22.140625 -16.019531 21.550781 -18.15625 20.375 -19.625 C 19.195312 -21.09375 17.535156 -21.828125 15.390625 -21.828125 C 13.210938 -21.828125 11.535156 -21.09375 10.359375 -19.625 C 9.191406 -18.15625 8.609375 -16.019531 8.609375 -13.21875 C 8.609375 -10.382812 9.1875 -8.25 10.34375 -6.8125 C 11.5 -5.382812 13.164062 -4.671875 15.34375 -4.671875 Z M 15.34375 -4.671875 "/></g></g></g><g fill="#001639" fill-opacity="1"><g transform="translate(146.988543, 53.118975)"><g><path d="M 17.625 -26.796875 C 18.59375 -26.796875 19.457031 -26.660156 20.21875 -26.390625 L 20.171875 -20.484375 C 19.128906 -20.929688 17.988281 -21.15625 16.75 -21.15625 C 14.53125 -21.15625 12.84375 -20.515625 11.6875 -19.234375 C 10.53125 -17.953125 9.953125 -16.257812 9.953125 -14.15625 L 9.953125 0 L 3.53125 0 L 3.53125 -18.765625 C 3.53125 -20.148438 3.492188 -21.460938 3.421875 -22.703125 C 3.347656 -23.953125 3.242188 -25.113281 3.109375 -26.1875 L 9.171875 -26.1875 L 9.6875 -21.5625 C 10.351562 -23.257812 11.394531 -24.554688 12.8125 -25.453125 C 14.226562 -26.347656 15.832031 -26.796875 17.625 -26.796875 Z M 17.625 -26.796875 "/></g></g></g><g fill="#001639" fill-opacity="1"><g transform="translate(164.764078, 53.118975)"><g><path d="M 11.765625 -21.3125 L 11.765625 -9.59375 C 11.765625 -6.519531 13.203125 -4.984375 16.078125 -4.984375 C 16.796875 -4.984375 17.65625 -5.117188 18.65625 -5.390625 L 18.65625 -0.265625 C 17.519531 0.148438 16.140625 0.359375 14.515625 0.359375 C 11.546875 0.359375 9.265625 -0.46875 7.671875 -2.125 C 6.078125 -3.78125 5.28125 -6.164062 5.28125 -9.28125 L 5.28125 -21.3125 L 0.265625 -21.3125 L 0.265625 -26.1875 L 5.28125 -26.1875 L 5.28125 -32.5625 L 11.765625 -34.734375 L 11.765625 -26.1875 L 18.71875 -26.1875 L 18.71875 -21.3125 Z M 11.765625 -21.3125 "/></g></g></g><g fill="#001639" fill-opacity="1"><g transform="translate(181.865873, 53.118975)"><g><path d="M 15.390625 0.421875 C 12.765625 0.421875 10.4375 -0.132812 8.40625 -1.25 C 6.394531 -2.351562 4.835938 -3.929688 3.734375 -5.984375 C 2.628906 -8.046875 2.078125 -10.457031 2.078125 -13.21875 C 2.078125 -15.945312 2.628906 -18.367188 3.734375 -20.484375 C 4.835938 -22.515625 6.390625 -24.082031 8.390625 -25.1875 C 10.398438 -26.300781 12.734375 -26.859375 15.390625 -26.859375 C 17.984375 -26.859375 20.300781 -26.304688 22.34375 -25.203125 C 24.34375 -24.085938 25.890625 -22.503906 26.984375 -20.453125 C 28.078125 -18.398438 28.625 -15.988281 28.625 -13.21875 C 28.625 -10.414062 28.085938 -8.015625 27.015625 -6.015625 C 25.941406 -3.941406 24.394531 -2.347656 22.375 -1.234375 C 20.351562 -0.128906 18.023438 0.421875 15.390625 0.421875 Z M 15.34375 -4.671875 C 17.550781 -4.671875 19.234375 -5.382812 20.390625 -6.8125 C 21.554688 -8.25 22.140625 -10.382812 22.140625 -13.21875 C 22.140625 -16.019531 21.550781 -18.15625 20.375 -19.625 C 19.195312 -21.09375 17.535156 -21.828125 15.390625 -21.828125 C 13.210938 -21.828125 11.535156 -21.09375 10.359375 -19.625 C 9.191406 -18.15625 8.609375 -16.019531 8.609375 -13.21875 C 8.609375 -10.382812 9.1875 -8.25 10.34375 -6.8125 C 11.5 -5.382812 13.164062 -4.671875 15.34375 -4.671875 Z M 15.34375 -4.671875 "/></g></g></g><g fill="#001639" fill-opacity="1"><g transform="translate(210.00663, 53.118975)"><g><path d="M 3.53125 0 L 3.53125 -38.15625 L 9.953125 -38.15625 L 9.953125 0 Z M 3.53125 0 "/></g></g></g><g fill="#001639" fill-opacity="1"><g transform="translate(220.992956, 53.118975)"><g><path d="M 15.390625 0.421875 C 12.765625 0.421875 10.4375 -0.132812 8.40625 -1.25 C 6.394531 -2.351562 4.835938 -3.929688 3.734375 -5.984375 C 2.628906 -8.046875 2.078125 -10.457031 2.078125 -13.21875 C 2.078125 -15.945312 2.628906 -18.367188 3.734375 -20.484375 C 4.835938 -22.515625 6.390625 -24.082031 8.390625 -25.1875 C 10.398438 -26.300781 12.734375 -26.859375 15.390625 -26.859375 C 17.984375 -26.859375 20.300781 -26.304688 22.34375 -25.203125 C 24.34375 -24.085938 25.890625 -22.503906 26.984375 -20.453125 C 28.078125 -18.398438 28.625 -15.988281 28.625 -13.21875 C 28.625 -10.414062 28.085938 -8.015625 27.015625 -6.015625 C 25.941406 -3.941406 24.394531 -2.347656 22.375 -1.234375 C 20.351562 -0.128906 18.023438 0.421875 15.390625 0.421875 Z M 15.34375 -4.671875 C 17.550781 -4.671875 19.234375 -5.382812 20.390625 -6.8125 C 21.554688 -8.25 22.140625 -10.382812 22.140625 -13.21875 C 22.140625 -16.019531 21.550781 -18.15625 20.375 -19.625 C 19.195312 -21.09375 17.535156 -21.828125 15.390625 -21.828125 C 13.210938 -21.828125 11.535156 -21.09375 10.359375 -19.625 C 9.191406 -18.15625 8.609375 -16.019531 8.609375 -13.21875 C 8.609375 -10.382812 9.1875 -8.25 10.34375 -6.8125 C 11.5 -5.382812 13.164062 -4.671875 15.34375 -4.671875 Z M 15.34375 -4.671875 "/></g></g></g><g fill="#001639" fill-opacity="1"><g transform="translate(249.133701, 53.118975)"><g><path d="M 28.828125 -26.1875 L 28.828125 -0.828125 C 28.828125 3.242188 27.703125 6.332031 25.453125 8.4375 C 23.203125 10.550781 19.898438 11.609375 15.546875 11.609375 C 11.472656 11.609375 7.914062 10.765625 4.875 9.078125 L 5.90625 4.140625 C 9.09375 5.804688 12.253906 6.640625 15.390625 6.640625 C 20.054688 6.640625 22.390625 4.320312 22.390625 -0.3125 L 22.390625 -5.5 C 21.597656 -4.082031 20.441406 -2.929688 18.921875 -2.046875 C 17.398438 -1.160156 15.691406 -0.71875 13.796875 -0.71875 C 11.546875 -0.71875 9.519531 -1.273438 7.71875 -2.390625 C 5.925781 -3.492188 4.535156 -5.03125 3.546875 -7 C 2.566406 -8.96875 2.078125 -11.234375 2.078125 -13.796875 C 2.078125 -16.273438 2.578125 -18.554688 3.578125 -20.640625 C 4.578125 -22.609375 5.957031 -24.132812 7.71875 -25.21875 C 9.488281 -26.3125 11.515625 -26.859375 13.796875 -26.859375 C 15.722656 -26.859375 17.4375 -26.453125 18.9375 -25.640625 C 20.445312 -24.828125 21.597656 -23.691406 22.390625 -22.234375 L 22.390625 -26.1875 Z M 15.5 -5.8125 C 17.644531 -5.8125 19.328125 -6.519531 20.546875 -7.9375 C 21.773438 -9.351562 22.390625 -11.304688 22.390625 -13.796875 C 22.390625 -16.273438 21.785156 -18.222656 20.578125 -19.640625 C 19.367188 -21.066406 17.675781 -21.78125 15.5 -21.78125 C 13.351562 -21.78125 11.664062 -21.066406 10.4375 -19.640625 C 9.21875 -18.222656 8.609375 -16.273438 8.609375 -13.796875 C 8.609375 -11.304688 9.21875 -9.351562 10.4375 -7.9375 C 11.664062 -6.519531 13.351562 -5.8125 15.5 -5.8125 Z M 15.5 -5.8125 "/></g></g></g><g fill="#001639" fill-opacity="1"><g transform="translate(278.881055, 53.118975)"><g><path d="M 28.3125 -26.1875 L 16.125 1.765625 C 14.738281 5.015625 12.972656 7.378906 10.828125 8.859375 C 8.691406 10.347656 6.050781 11.335938 2.90625 11.828125 L 1.453125 6.84375 C 3.898438 6.289062 5.738281 5.585938 6.96875 4.734375 C 8.195312 3.890625 9.191406 2.640625 9.953125 0.984375 L 10.78125 -0.9375 L -0.109375 -26.1875 L 6.6875 -26.1875 L 14.203125 -7.359375 L 21.875 -26.1875 Z M 28.3125 -26.1875 "/></g></g></g></g></g><g clip-path="url(#c067406761)"><g clip-path="url(#2ccf6c8292)"><g transform="matrix(1, 0, 0, 1, 334, 60)"><g clip-path="url(#63807279c1)"><g clip-path="url(#446ebb5789)"><g clip-path="url(#2ee5e51f97)"><path fill="#001639" d="M 0.460938 0.945312 L 6.929688 0.945312 L 6.929688 7.417969 L 0.460938 7.417969 Z M 0.460938 0.945312 " fill-opacity="1" fill-rule="nonzero"/></g></g></g></g></g></g><g transform="matrix(1, 0, 0, 1, 184, 4)"><g clip-path="url(#4ce71acd9e)"><g clip-path="url(#c473aabe7c)"><g fill="#001639" fill-opacity="1"><g transform="translate(0.164763, 24.806466)"><g/></g></g></g></g></g></svg>