<svg xmlns="http://www.w3.org/2000/svg" xmlns:xlink="http://www.w3.org/1999/xlink" width="500" zoomAndPan="magnify" viewBox="0 0 375 374.999991" height="500" preserveAspectRatio="xMidYMid meet" version="1.0"><defs><g/><clipPath id="a5b24f5087"><path d="M 331.085938 206.421875 L 337.5 206.421875 L 337.5 212.835938 L 331.085938 212.835938 Z M 331.085938 206.421875 " clip-rule="nonzero"/></clipPath><clipPath id="07bdc92861"><path d="M 334.292969 206.421875 C 332.519531 206.421875 331.085938 207.855469 331.085938 209.628906 C 331.085938 211.402344 332.519531 212.835938 334.292969 212.835938 C 336.0625 212.835938 337.5 211.402344 337.5 209.628906 C 337.5 207.855469 336.0625 206.421875 334.292969 206.421875 Z M 334.292969 206.421875 " clip-rule="nonzero"/></clipPath><clipPath id="1a0ccea3ba"><path d="M 0.0859375 0.421875 L 6.5 0.421875 L 6.5 6.835938 L 0.0859375 6.835938 Z M 0.0859375 0.421875 " clip-rule="nonzero"/></clipPath><clipPath id="65eb16a988"><path d="M 3.292969 0.421875 C 1.519531 0.421875 0.0859375 1.855469 0.0859375 3.628906 C 0.0859375 5.402344 1.519531 6.835938 3.292969 6.835938 C 5.0625 6.835938 6.5 5.402344 6.5 3.628906 C 6.5 1.855469 5.0625 0.421875 3.292969 0.421875 Z M 3.292969 0.421875 " clip-rule="nonzero"/></clipPath><clipPath id="3e5d9d2369"><rect x="0" width="7" y="0" height="7"/></clipPath></defs><rect x="-37.5" width="450" fill="#ffffff" y="-37.499999" height="449.999989" fill-opacity="1"/><rect x="-37.5" width="450" fill="#001639" y="-37.499999" height="449.999989" fill-opacity="1"/><g fill="#ffffff" fill-opacity="1"><g transform="translate(40.197806, 206.249986)"><g><path d="M 15.84375 0.453125 C 13.113281 0.453125 10.5625 0.0859375 8.1875 -0.640625 C 5.8125 -1.378906 3.796875 -2.425781 2.140625 -3.78125 L 4.328125 -8.46875 C 7.679688 -5.945312 11.535156 -4.6875 15.890625 -4.6875 C 18.347656 -4.6875 20.25 -5.113281 21.59375 -5.96875 C 22.9375 -6.832031 23.609375 -8.046875 23.609375 -9.609375 C 23.609375 -10.941406 22.992188 -11.972656 21.765625 -12.703125 C 21.140625 -13.066406 20.3125 -13.40625 19.28125 -13.71875 C 18.25 -14.039062 17.019531 -14.363281 15.59375 -14.6875 C 12.632812 -15.351562 10.207031 -16.117188 8.3125 -16.984375 C 6.425781 -17.847656 5.039062 -18.9375 4.15625 -20.25 C 3.28125 -21.5625 2.84375 -23.179688 2.84375 -25.109375 C 2.84375 -27.203125 3.40625 -29.0625 4.53125 -30.6875 C 5.664062 -32.3125 7.269531 -33.585938 9.34375 -34.515625 C 11.414062 -35.453125 13.8125 -35.921875 16.53125 -35.921875 C 19.03125 -35.921875 21.398438 -35.546875 23.640625 -34.796875 C 25.878906 -34.046875 27.710938 -33.007812 29.140625 -31.6875 L 27 -27 C 23.875 -29.519531 20.382812 -30.78125 16.53125 -30.78125 C 14.238281 -30.78125 12.425781 -30.304688 11.09375 -29.359375 C 9.769531 -28.410156 9.109375 -27.125 9.109375 -25.5 C 9.109375 -24.144531 9.707031 -23.082031 10.90625 -22.3125 C 11.46875 -21.945312 12.253906 -21.597656 13.265625 -21.265625 C 14.285156 -20.929688 15.507812 -20.601562 16.9375 -20.28125 C 19.957031 -19.539062 22.363281 -18.789062 24.15625 -18.03125 C 26.019531 -17.195312 27.445312 -16.140625 28.4375 -14.859375 C 29.4375 -13.585938 29.9375 -11.988281 29.9375 -10.0625 C 29.9375 -7.90625 29.375 -6.0625 28.25 -4.53125 C 27.113281 -2.9375 25.484375 -1.707031 23.359375 -0.84375 C 21.234375 0.0195312 18.726562 0.453125 15.84375 0.453125 Z M 15.84375 0.453125 "/></g></g></g><g fill="#ffffff" fill-opacity="1"><g transform="translate(69.830804, 206.249986)"><g><path d="M 26.296875 -25.15625 L 26.296875 0 L 20.21875 0 L 20.21875 -3.890625 C 18.59375 -1.023438 16.003906 0.40625 12.453125 0.40625 C 6.304688 0.40625 3.234375 -3.050781 3.234375 -9.96875 L 3.234375 -25.15625 L 9.421875 -25.15625 L 9.421875 -9.90625 C 9.421875 -6.351562 10.945312 -4.578125 14 -4.578125 C 15.820312 -4.578125 17.28125 -5.175781 18.375 -6.375 C 19.476562 -7.570312 20.03125 -9.164062 20.03125 -11.15625 L 20.03125 -25.15625 Z M 26.296875 -25.15625 "/></g></g></g><g fill="#ffffff" fill-opacity="1"><g transform="translate(97.073177, 206.249986)"><g><path d="M 17.734375 -25.796875 C 19.890625 -25.796875 21.816406 -25.25 23.515625 -24.15625 C 25.171875 -23.03125 26.472656 -21.460938 27.421875 -19.453125 C 28.367188 -17.441406 28.84375 -15.140625 28.84375 -12.546875 C 28.84375 -9.890625 28.378906 -7.617188 27.453125 -5.734375 C 26.515625 -3.773438 25.207031 -2.257812 23.53125 -1.1875 C 21.851562 -0.125 19.921875 0.40625 17.734375 0.40625 C 15.910156 0.40625 14.28125 0.0117188 12.84375 -0.765625 C 11.414062 -1.546875 10.320312 -2.632812 9.5625 -4.03125 L 9.5625 10.765625 L 3.390625 10.765625 L 3.390625 -18.03125 C 3.390625 -19.363281 3.351562 -20.625 3.28125 -21.8125 C 3.21875 -23.007812 3.117188 -24.125 2.984375 -25.15625 L 8.8125 -25.15625 L 9.3125 -20.828125 C 9.976562 -22.378906 11.054688 -23.59375 12.546875 -24.46875 C 14.046875 -25.351562 15.773438 -25.796875 17.734375 -25.796875 Z M 16.046875 -4.484375 C 18.128906 -4.484375 19.734375 -5.179688 20.859375 -6.578125 C 21.992188 -7.972656 22.5625 -9.960938 22.5625 -12.546875 C 22.5625 -15.171875 21.992188 -17.222656 20.859375 -18.703125 C 19.734375 -20.179688 18.144531 -20.921875 16.09375 -20.921875 C 13.96875 -20.921875 12.335938 -20.207031 11.203125 -18.78125 C 10.078125 -17.351562 9.515625 -15.3125 9.515625 -12.65625 C 9.515625 -10.03125 10.078125 -8.007812 11.203125 -6.59375 C 12.335938 -5.1875 13.953125 -4.484375 16.046875 -4.484375 Z M 16.046875 -4.484375 "/></g></g></g><g fill="#ffffff" fill-opacity="1"><g transform="translate(125.510862, 206.249986)"><g><path d="M 17.734375 -25.796875 C 19.890625 -25.796875 21.816406 -25.25 23.515625 -24.15625 C 25.171875 -23.03125 26.472656 -21.460938 27.421875 -19.453125 C 28.367188 -17.441406 28.84375 -15.140625 28.84375 -12.546875 C 28.84375 -9.890625 28.378906 -7.617188 27.453125 -5.734375 C 26.515625 -3.773438 25.207031 -2.257812 23.53125 -1.1875 C 21.851562 -0.125 19.921875 0.40625 17.734375 0.40625 C 15.910156 0.40625 14.28125 0.0117188 12.84375 -0.765625 C 11.414062 -1.546875 10.320312 -2.632812 9.5625 -4.03125 L 9.5625 10.765625 L 3.390625 10.765625 L 3.390625 -18.03125 C 3.390625 -19.363281 3.351562 -20.625 3.28125 -21.8125 C 3.21875 -23.007812 3.117188 -24.125 2.984375 -25.15625 L 8.8125 -25.15625 L 9.3125 -20.828125 C 9.976562 -22.378906 11.054688 -23.59375 12.546875 -24.46875 C 14.046875 -25.351562 15.773438 -25.796875 17.734375 -25.796875 Z M 16.046875 -4.484375 C 18.128906 -4.484375 19.734375 -5.179688 20.859375 -6.578125 C 21.992188 -7.972656 22.5625 -9.960938 22.5625 -12.546875 C 22.5625 -15.171875 21.992188 -17.222656 20.859375 -18.703125 C 19.734375 -20.179688 18.144531 -20.921875 16.09375 -20.921875 C 13.96875 -20.921875 12.335938 -20.207031 11.203125 -18.78125 C 10.078125 -17.351562 9.515625 -15.3125 9.515625 -12.65625 C 9.515625 -10.03125 10.078125 -8.007812 11.203125 -6.59375 C 12.335938 -5.1875 13.953125 -4.484375 16.046875 -4.484375 Z M 16.046875 -4.484375 "/></g></g></g><g fill="#ffffff" fill-opacity="1"><g transform="translate(153.948547, 206.249986)"><g><path d="M 14.796875 0.40625 C 12.273438 0.40625 10.03125 -0.128906 8.0625 -1.203125 C 6.144531 -2.265625 4.65625 -3.78125 3.59375 -5.75 C 2.53125 -7.726562 2 -10.046875 2 -12.703125 C 2 -15.328125 2.53125 -17.648438 3.59375 -19.671875 C 4.65625 -21.628906 6.144531 -23.140625 8.0625 -24.203125 C 9.988281 -25.265625 12.234375 -25.796875 14.796875 -25.796875 C 17.285156 -25.796875 19.507812 -25.265625 21.46875 -24.203125 C 23.394531 -23.140625 24.878906 -21.617188 25.921875 -19.640625 C 26.972656 -17.671875 27.5 -15.359375 27.5 -12.703125 C 27.5 -10.015625 26.984375 -7.707031 25.953125 -5.78125 C 24.921875 -3.789062 23.429688 -2.257812 21.484375 -1.1875 C 19.546875 -0.125 17.316406 0.40625 14.796875 0.40625 Z M 14.75 -4.484375 C 16.875 -4.484375 18.488281 -5.171875 19.59375 -6.546875 C 20.707031 -7.929688 21.265625 -9.984375 21.265625 -12.703125 C 21.265625 -15.390625 20.695312 -17.4375 19.5625 -18.84375 C 18.4375 -20.257812 16.847656 -20.96875 14.796875 -20.96875 C 12.703125 -20.96875 11.085938 -20.257812 9.953125 -18.84375 C 8.828125 -17.4375 8.265625 -15.390625 8.265625 -12.703125 C 8.265625 -9.984375 8.820312 -7.929688 9.9375 -6.546875 C 11.050781 -5.171875 12.65625 -4.484375 14.75 -4.484375 Z M 14.75 -4.484375 "/></g></g></g><g fill="#ffffff" fill-opacity="1"><g transform="translate(180.991701, 206.249986)"><g><path d="M 16.9375 -25.75 C 17.863281 -25.75 18.691406 -25.617188 19.421875 -25.359375 L 19.375 -19.671875 C 18.375 -20.109375 17.28125 -20.328125 16.09375 -20.328125 C 13.96875 -20.328125 12.347656 -19.710938 11.234375 -18.484375 C 10.117188 -17.253906 9.5625 -15.625 9.5625 -13.59375 L 9.5625 0 L 3.390625 0 L 3.390625 -18.03125 C 3.390625 -19.363281 3.351562 -20.625 3.28125 -21.8125 C 3.21875 -23.007812 3.117188 -24.125 2.984375 -25.15625 L 8.8125 -25.15625 L 9.3125 -20.71875 C 9.945312 -22.34375 10.941406 -23.585938 12.296875 -24.453125 C 13.660156 -25.316406 15.207031 -25.75 16.9375 -25.75 Z M 16.9375 -25.75 "/></g></g></g><g fill="#ffffff" fill-opacity="1"><g transform="translate(198.073918, 206.249986)"><g><path d="M 11.3125 -20.46875 L 11.3125 -9.21875 C 11.3125 -6.257812 12.6875 -4.78125 15.4375 -4.78125 C 16.132812 -4.78125 16.96875 -4.914062 17.9375 -5.1875 L 17.9375 -0.25 C 16.832031 0.144531 15.503906 0.34375 13.953125 0.34375 C 11.085938 0.34375 8.890625 -0.453125 7.359375 -2.046875 C 5.835938 -3.640625 5.078125 -5.929688 5.078125 -8.921875 L 5.078125 -20.46875 L 0.25 -20.46875 L 0.25 -25.15625 L 5.078125 -25.15625 L 5.078125 -31.28125 L 11.3125 -33.375 L 11.3125 -25.15625 L 17.984375 -25.15625 L 17.984375 -20.46875 Z M 11.3125 -20.46875 "/></g></g></g><g fill="#ffffff" fill-opacity="1"><g transform="translate(214.508674, 206.249986)"><g><path d="M 14.796875 0.40625 C 12.273438 0.40625 10.03125 -0.128906 8.0625 -1.203125 C 6.144531 -2.265625 4.65625 -3.78125 3.59375 -5.75 C 2.53125 -7.726562 2 -10.046875 2 -12.703125 C 2 -15.328125 2.53125 -17.648438 3.59375 -19.671875 C 4.65625 -21.628906 6.144531 -23.140625 8.0625 -24.203125 C 9.988281 -25.265625 12.234375 -25.796875 14.796875 -25.796875 C 17.285156 -25.796875 19.507812 -25.265625 21.46875 -24.203125 C 23.394531 -23.140625 24.878906 -21.617188 25.921875 -19.640625 C 26.972656 -17.671875 27.5 -15.359375 27.5 -12.703125 C 27.5 -10.015625 26.984375 -7.707031 25.953125 -5.78125 C 24.921875 -3.789062 23.429688 -2.257812 21.484375 -1.1875 C 19.546875 -0.125 17.316406 0.40625 14.796875 0.40625 Z M 14.75 -4.484375 C 16.875 -4.484375 18.488281 -5.171875 19.59375 -6.546875 C 20.707031 -7.929688 21.265625 -9.984375 21.265625 -12.703125 C 21.265625 -15.390625 20.695312 -17.4375 19.5625 -18.84375 C 18.4375 -20.257812 16.847656 -20.96875 14.796875 -20.96875 C 12.703125 -20.96875 11.085938 -20.257812 9.953125 -18.84375 C 8.828125 -17.4375 8.265625 -15.390625 8.265625 -12.703125 C 8.265625 -9.984375 8.820312 -7.929688 9.9375 -6.546875 C 11.050781 -5.171875 12.65625 -4.484375 14.75 -4.484375 Z M 14.75 -4.484375 "/></g></g></g><g fill="#ffffff" fill-opacity="1"><g transform="translate(241.551828, 206.249986)"><g><path d="M 3.390625 0 L 3.390625 -36.65625 L 9.5625 -36.65625 L 9.5625 0 Z M 3.390625 0 "/></g></g></g><g fill="#ffffff" fill-opacity="1"><g transform="translate(252.109643, 206.249986)"><g><path d="M 14.796875 0.40625 C 12.273438 0.40625 10.03125 -0.128906 8.0625 -1.203125 C 6.144531 -2.265625 4.65625 -3.78125 3.59375 -5.75 C 2.53125 -7.726562 2 -10.046875 2 -12.703125 C 2 -15.328125 2.53125 -17.648438 3.59375 -19.671875 C 4.65625 -21.628906 6.144531 -23.140625 8.0625 -24.203125 C 9.988281 -25.265625 12.234375 -25.796875 14.796875 -25.796875 C 17.285156 -25.796875 19.507812 -25.265625 21.46875 -24.203125 C 23.394531 -23.140625 24.878906 -21.617188 25.921875 -19.640625 C 26.972656 -17.671875 27.5 -15.359375 27.5 -12.703125 C 27.5 -10.015625 26.984375 -7.707031 25.953125 -5.78125 C 24.921875 -3.789062 23.429688 -2.257812 21.484375 -1.1875 C 19.546875 -0.125 17.316406 0.40625 14.796875 0.40625 Z M 14.75 -4.484375 C 16.875 -4.484375 18.488281 -5.171875 19.59375 -6.546875 C 20.707031 -7.929688 21.265625 -9.984375 21.265625 -12.703125 C 21.265625 -15.390625 20.695312 -17.4375 19.5625 -18.84375 C 18.4375 -20.257812 16.847656 -20.96875 14.796875 -20.96875 C 12.703125 -20.96875 11.085938 -20.257812 9.953125 -18.84375 C 8.828125 -17.4375 8.265625 -15.390625 8.265625 -12.703125 C 8.265625 -9.984375 8.820312 -7.929688 9.9375 -6.546875 C 11.050781 -5.171875 12.65625 -4.484375 14.75 -4.484375 Z M 14.75 -4.484375 "/></g></g></g><g fill="#ffffff" fill-opacity="1"><g transform="translate(279.152786, 206.249986)"><g><path d="M 27.703125 -25.15625 L 27.703125 -0.796875 C 27.703125 3.117188 26.617188 6.085938 24.453125 8.109375 C 22.296875 10.140625 19.125 11.15625 14.9375 11.15625 C 11.019531 11.15625 7.601562 10.34375 4.6875 8.71875 L 5.671875 3.984375 C 8.734375 5.578125 11.773438 6.375 14.796875 6.375 C 19.273438 6.375 21.515625 4.148438 21.515625 -0.296875 L 21.515625 -5.28125 C 20.753906 -3.914062 19.640625 -2.8125 18.171875 -1.96875 C 16.710938 -1.125 15.070312 -0.703125 13.25 -0.703125 C 11.09375 -0.703125 9.148438 -1.234375 7.421875 -2.296875 C 5.691406 -3.359375 4.351562 -4.832031 3.40625 -6.71875 C 2.46875 -8.613281 2 -10.789062 2 -13.25 C 2 -15.644531 2.476562 -17.835938 3.4375 -19.828125 C 4.394531 -21.722656 5.722656 -23.191406 7.421875 -24.234375 C 9.117188 -25.273438 11.0625 -25.796875 13.25 -25.796875 C 15.113281 -25.796875 16.765625 -25.40625 18.203125 -24.625 C 19.648438 -23.851562 20.753906 -22.769531 21.515625 -21.375 L 21.515625 -25.15625 Z M 14.890625 -5.578125 C 16.953125 -5.578125 18.570312 -6.253906 19.75 -7.609375 C 20.925781 -8.972656 21.515625 -10.851562 21.515625 -13.25 C 21.515625 -15.644531 20.929688 -17.519531 19.765625 -18.875 C 18.609375 -20.238281 16.984375 -20.921875 14.890625 -20.921875 C 12.835938 -20.921875 11.21875 -20.238281 10.03125 -18.875 C 8.851562 -17.519531 8.265625 -15.644531 8.265625 -13.25 C 8.265625 -10.851562 8.851562 -8.972656 10.03125 -7.609375 C 11.21875 -6.253906 12.835938 -5.578125 14.890625 -5.578125 Z M 14.890625 -5.578125 "/></g></g></g><g fill="#ffffff" fill-opacity="1"><g transform="translate(307.739873, 206.249986)"><g><path d="M 27.203125 -25.15625 L 15.484375 1.6875 C 14.160156 4.8125 12.46875 7.085938 10.40625 8.515625 C 8.351562 9.941406 5.816406 10.890625 2.796875 11.359375 L 1.390625 6.578125 C 3.753906 6.046875 5.523438 5.375 6.703125 4.5625 C 7.878906 3.75 8.832031 2.546875 9.5625 0.953125 L 10.359375 -0.890625 L -0.09375 -25.15625 L 6.421875 -25.15625 L 13.65625 -7.078125 L 21.015625 -25.15625 Z M 27.203125 -25.15625 "/></g></g></g><g clip-path="url(#a5b24f5087)"><g clip-path="url(#07bdc92861)"><g transform="matrix(1, 0, 0, 1, 331, 206)"><g clip-path="url(#3e5d9d2369)"><g clip-path="url(#1a0ccea3ba)"><g clip-path="url(#65eb16a988)"><path fill="#ffffff" d="M 0.0859375 0.421875 L 6.5 0.421875 L 6.5 6.835938 L 0.0859375 6.835938 Z M 0.0859375 0.421875 " fill-opacity="1" fill-rule="nonzero"/></g></g></g></g></g></g></svg>