<svg xmlns="http://www.w3.org/2000/svg" xmlns:xlink="http://www.w3.org/1999/xlink" width="500" zoomAndPan="magnify" viewBox="0 0 375 374.999991" height="500" preserveAspectRatio="xMidYMid meet" version="1.0"><defs><g/><clipPath id="01b79980e2"><path d="M 244.9375 227.863281 L 289.398438 227.863281 L 289.398438 272.324219 L 244.9375 272.324219 Z M 244.9375 227.863281 " clip-rule="nonzero"/></clipPath><clipPath id="7a8a459c40"><path d="M 267.167969 227.863281 C 254.890625 227.863281 244.9375 237.816406 244.9375 250.09375 C 244.9375 262.371094 254.890625 272.324219 267.167969 272.324219 C 279.445312 272.324219 289.398438 262.371094 289.398438 250.09375 C 289.398438 237.816406 279.445312 227.863281 267.167969 227.863281 Z M 267.167969 227.863281 " clip-rule="nonzero"/></clipPath><clipPath id="675db9ba45"><path d="M 0.9375 0.863281 L 45.398438 0.863281 L 45.398438 45.324219 L 0.9375 45.324219 Z M 0.9375 0.863281 " clip-rule="nonzero"/></clipPath><clipPath id="74ee0abab3"><path d="M 23.167969 0.863281 C 10.890625 0.863281 0.9375 10.816406 0.9375 23.09375 C 0.9375 35.371094 10.890625 45.324219 23.167969 45.324219 C 35.445312 45.324219 45.398438 35.371094 45.398438 23.09375 C 45.398438 10.816406 35.445312 0.863281 23.167969 0.863281 Z M 23.167969 0.863281 " clip-rule="nonzero"/></clipPath><clipPath id="f891f6a08b"><rect x="0" width="46" y="0" height="46"/></clipPath></defs><rect x="-37.5" width="450" fill="#ffffff" y="-37.499999" height="449.999989" fill-opacity="1"/><rect x="-37.5" width="450" fill="#001639" y="-37.499999" height="449.999989" fill-opacity="1"/><g fill="#ffffff" fill-opacity="1"><g transform="translate(89.817663, 276.749984)"><g><path d="M 75.671875 2.140625 C 62.671875 2.140625 50.492188 0.394531 39.140625 -3.09375 C 27.796875 -6.582031 18.160156 -11.582031 10.234375 -18.09375 L 20.703125 -40.453125 C 36.722656 -28.398438 55.128906 -22.375 75.921875 -22.375 C 87.660156 -22.375 96.738281 -24.4375 103.15625 -28.5625 C 109.582031 -32.6875 112.796875 -38.476562 112.796875 -45.9375 C 112.796875 -52.28125 109.863281 -57.195312 104 -60.6875 C 100.988281 -62.425781 97.019531 -64.050781 92.09375 -65.5625 C 87.175781 -67.070312 81.304688 -68.617188 74.484375 -70.203125 C 60.367188 -73.378906 48.785156 -77.03125 39.734375 -81.15625 C 30.691406 -85.28125 24.066406 -90.472656 19.859375 -96.734375 C 15.660156 -103.003906 13.5625 -110.738281 13.5625 -119.9375 C 13.5625 -129.9375 16.257812 -138.820312 21.65625 -146.59375 C 27.050781 -154.375 34.707031 -160.484375 44.625 -164.921875 C 54.539062 -169.367188 66.003906 -171.59375 79.015625 -171.59375 C 90.910156 -171.59375 102.210938 -169.804688 112.921875 -166.234375 C 123.628906 -162.660156 132.394531 -157.703125 139.21875 -151.359375 L 128.984375 -128.984375 C 114.066406 -141.046875 97.410156 -147.078125 79.015625 -147.078125 C 68.066406 -147.078125 59.414062 -144.816406 53.0625 -140.296875 C 46.71875 -135.773438 43.546875 -129.625 43.546875 -121.84375 C 43.546875 -115.34375 46.40625 -110.265625 52.125 -106.609375 C 54.820312 -104.867188 58.585938 -103.203125 63.421875 -101.609375 C 68.265625 -100.023438 74.097656 -98.441406 80.921875 -96.859375 C 95.359375 -93.367188 106.859375 -89.800781 115.421875 -86.15625 C 124.304688 -82.1875 131.128906 -77.144531 135.890625 -71.03125 C 140.648438 -64.925781 143.03125 -57.273438 143.03125 -48.078125 C 143.03125 -37.765625 140.332031 -28.957031 134.9375 -21.65625 C 129.539062 -14.039062 121.765625 -8.171875 111.609375 -4.046875 C 101.460938 0.078125 89.484375 2.140625 75.671875 2.140625 Z M 75.671875 2.140625 "/></g></g></g><g clip-path="url(#01b79980e2)"><g clip-path="url(#7a8a459c40)"><g transform="matrix(1, 0, 0, 1, 244, 227)"><g clip-path="url(#f891f6a08b)"><g clip-path="url(#675db9ba45)"><g clip-path="url(#74ee0abab3)"><path fill="#ffffff" d="M 0.9375 0.863281 L 45.398438 0.863281 L 45.398438 45.324219 L 0.9375 45.324219 Z M 0.9375 0.863281 " fill-opacity="1" fill-rule="nonzero"/></g></g></g></g></g></g></svg>