<svg xmlns="http://www.w3.org/2000/svg" xmlns:xlink="http://www.w3.org/1999/xlink" width="500" zoomAndPan="magnify" viewBox="0 0 375 374.999991" height="500" preserveAspectRatio="xMidYMid meet" version="1.0"><defs><g/><clipPath id="28eb735a40"><path d="M 202.5 198.722656 L 208.917969 198.722656 L 208.917969 205.136719 L 202.5 205.136719 Z M 202.5 198.722656 " clip-rule="nonzero"/></clipPath><clipPath id="0d37ec0d9f"><path d="M 205.710938 198.722656 C 203.9375 198.722656 202.5 200.15625 202.5 201.929688 C 202.5 203.699219 203.9375 205.136719 205.710938 205.136719 C 207.480469 205.136719 208.917969 203.699219 208.917969 201.929688 C 208.917969 200.15625 207.480469 198.722656 205.710938 198.722656 Z M 205.710938 198.722656 " clip-rule="nonzero"/></clipPath><clipPath id="ad3c0be0e7"><path d="M 0.5 0.722656 L 6.917969 0.722656 L 6.917969 7.136719 L 0.5 7.136719 Z M 0.5 0.722656 " clip-rule="nonzero"/></clipPath><clipPath id="c3358e9ceb"><path d="M 3.710938 0.722656 C 1.9375 0.722656 0.5 2.15625 0.5 3.929688 C 0.5 5.699219 1.9375 7.136719 3.710938 7.136719 C 5.480469 7.136719 6.917969 5.699219 6.917969 3.929688 C 6.917969 2.15625 5.480469 0.722656 3.710938 0.722656 Z M 3.710938 0.722656 " clip-rule="nonzero"/></clipPath><clipPath id="56bb3a1a9f"><rect x="0" width="7" y="0" height="8"/></clipPath></defs><rect x="-37.5" width="450" fill="#ffffff" y="-37.499999" height="449.999989" fill-opacity="1"/><rect x="-37.5" width="450" fill="#001639" y="-37.499999" height="449.999989" fill-opacity="1"/><g fill="#ffffff" fill-opacity="1"><g transform="translate(171.459517, 206.249986)"><g><path d="M 15.84375 0.453125 C 13.113281 0.453125 10.5625 0.0859375 8.1875 -0.640625 C 5.8125 -1.378906 3.796875 -2.425781 2.140625 -3.78125 L 4.328125 -8.46875 C 7.679688 -5.945312 11.535156 -4.6875 15.890625 -4.6875 C 18.347656 -4.6875 20.25 -5.113281 21.59375 -5.96875 C 22.9375 -6.832031 23.609375 -8.046875 23.609375 -9.609375 C 23.609375 -10.941406 22.992188 -11.972656 21.765625 -12.703125 C 21.140625 -13.066406 20.3125 -13.40625 19.28125 -13.71875 C 18.25 -14.039062 17.019531 -14.363281 15.59375 -14.6875 C 12.632812 -15.351562 10.207031 -16.117188 8.3125 -16.984375 C 6.425781 -17.847656 5.039062 -18.9375 4.15625 -20.25 C 3.28125 -21.5625 2.84375 -23.179688 2.84375 -25.109375 C 2.84375 -27.203125 3.40625 -29.0625 4.53125 -30.6875 C 5.664062 -32.3125 7.269531 -33.585938 9.34375 -34.515625 C 11.414062 -35.453125 13.8125 -35.921875 16.53125 -35.921875 C 19.03125 -35.921875 21.398438 -35.546875 23.640625 -34.796875 C 25.878906 -34.046875 27.710938 -33.007812 29.140625 -31.6875 L 27 -27 C 23.875 -29.519531 20.382812 -30.78125 16.53125 -30.78125 C 14.238281 -30.78125 12.425781 -30.304688 11.09375 -29.359375 C 9.769531 -28.410156 9.109375 -27.125 9.109375 -25.5 C 9.109375 -24.144531 9.707031 -23.082031 10.90625 -22.3125 C 11.46875 -21.945312 12.253906 -21.597656 13.265625 -21.265625 C 14.285156 -20.929688 15.507812 -20.601562 16.9375 -20.28125 C 19.957031 -19.539062 22.363281 -18.789062 24.15625 -18.03125 C 26.019531 -17.195312 27.445312 -16.140625 28.4375 -14.859375 C 29.4375 -13.585938 29.9375 -11.988281 29.9375 -10.0625 C 29.9375 -7.90625 29.375 -6.0625 28.25 -4.53125 C 27.113281 -2.9375 25.484375 -1.707031 23.359375 -0.84375 C 21.234375 0.0195312 18.726562 0.453125 15.84375 0.453125 Z M 15.84375 0.453125 "/></g></g></g><g clip-path="url(#28eb735a40)"><g clip-path="url(#0d37ec0d9f)"><g transform="matrix(1, 0, 0, 1, 202, 198)"><g clip-path="url(#56bb3a1a9f)"><g clip-path="url(#ad3c0be0e7)"><g clip-path="url(#c3358e9ceb)"><path fill="#ffffff" d="M 0.5 0.722656 L 6.917969 0.722656 L 6.917969 7.136719 L 0.5 7.136719 Z M 0.5 0.722656 " fill-opacity="1" fill-rule="nonzero"/></g></g></g></g></g></g></svg>